<?xml version="1.0" encoding="UTF-8"?>
<svg width="180" height="180" version="1.1" xmlns="http://www.w3.org/2000/svg">
 <defs>
  <marker id="a" overflow="visible" orient="auto">
   <path transform="scale(.35) rotate(180) translate(6)" d="m0 0 5-5-17.5 5 17.5 5-5-5z" stroke="#000"/>
  </marker>
  <marker id="b" overflow="visible" orient="auto">
   <path transform="scale(.30) rotate(180) translate(6)" d="m0 0 5-5-17.5 5 17.5 5-5-5z" fill="#06d" stroke="#06d"/>
  </marker>
 </defs>
 
 <g stroke="#888" stroke-dasharray="1, 1.5">
  <line x1="45" x2="120" y1="45" y2="45"/>
  <line x1="120" x2="120" y1="45" y2="150"/>
 </g>
 
 <g stroke="#000" stroke-width="1.2">
  <line x1="45" x2="45" y1="180" y2="15" marker-end="url(#a)"/>
  <line x1="15" x2="157" y1="150" y2="150" marker-end="url(#a)" stroke-width="1.2"/>
 </g>
 
 <circle cx="120" cy="45" r="2.5" fill="#333"/>
 
 <line x1="45" x2="117" y1="150" y2="50" marker-end="url(#b)" stroke="#06d" stroke-linecap="round" stroke-width="2"/>
 
 <g font-family="serif" font-size="14" font-style="italic" text-anchor="middle">
  <text x="28" y="22">Im</text>
  <text x="160" y="166">Re</text>
  <text x="35" y="166">O</text>
  <text x="120" y="163">a</text>
  <text x="35" y="50">b</text>
  <text x="134" y="36">z=a+bi</text>
 </g>
</svg>
